<?xml version="1.0" standalone="no"?>
<!DOCTYPE svg PUBLIC "-//W3C//DTD SVG 20010904//EN"
 "http://www.w3.org/TR/2001/REC-SVG-20010904/DTD/svg10.dtd">
<svg version="1.0" xmlns="http://www.w3.org/2000/svg"
 width="1200.000000pt" height="1200.000000pt" viewBox="0 0 1200.000000 1200.000000"
 preserveAspectRatio="xMidYMid meet">
<metadata>
Created by potrace 1.14, written by Peter Selinger 2001-2017
</metadata>
<g transform="translate(0.000000,1200.000000) scale(0.100000,-0.100000)"
fill="#000000" stroke="none">
<path d="M2401 7215 l0 -1565 905 0 904 0 1 100 c0 55 0 120 0 145 0 25 0 92
0 150 l-1 105 -600 0 c-330 0 -600 3 -601 8 0 10 -1 717 0 775 l1 47 525 0
524 0 3 88 c2 48 2 160 0 250 l-3 162 -524 0 -525 0 -1 28 c-1 35 -1 743 0
760 1 9 121 12 566 12 311 0 565 3 566 8 0 10 0 464 0 480 -1 9 -182 12 -870
12 l-869 0 -1 -1565z"/>
<path d="M4750 7215 l0 -1565 278 0 277 0 -2 942 c-1 906 -7 1419 -19 1578 -6
87 7 85 25 -5 51 -243 61 -274 211 -665 56 -146 153 -400 216 -565 63 -165
119 -309 123 -320 5 -11 18 -45 29 -75 11 -30 39 -102 61 -160 22 -58 94 -244
159 -415 l119 -310 233 0 233 0 144 385 c79 212 148 394 153 405 5 11 66 173
136 360 70 187 130 349 135 360 4 11 38 101 74 200 37 99 94 252 127 340 85
223 108 299 144 484 3 14 9 32 15 40 9 16 8 -15 -7 -259 -4 -52 -7 -596 -8
-1208 l-2 -1112 300 2 300 3 0 1560 0 1560 -427 3 c-274 1 -427 -1 -427 -8 0
-5 -54 -152 -121 -327 -66 -175 -129 -340 -139 -368 -19 -52 -194 -516 -235
-620 -13 -33 -58 -152 -101 -265 -42 -113 -86 -227 -96 -255 -38 -99 -88 -252
-129 -392 -23 -79 -45 -143 -49 -143 -4 0 -11 21 -15 48 -17 117 -61 249 -265
792 -83 223 -157 421 -164 440 -28 75 -359 959 -382 1017 -13 34 -24 66 -24
72 0 8 -132 11 -440 11 l-440 0 0 -1565z"/>
<path d="M8950 7215 l0 -1565 303 0 302 0 0 1563 0 1562 -303 3 -302 2 0
-1565z"/>
<path d="M2280 5235 l0 -55 3740 0 3740 0 0 55 0 55 -3740 0 -3740 0 0 -55z"/>
<path d="M2875 4820 c-218 -49 -378 -161 -499 -347 -45 -71 -98 -205 -111
-283 -4 -25 -9 -54 -11 -65 -7 -32 -6 -226 1 -270 53 -343 260 -568 578 -630
114 -23 356 -13 481 19 144 37 138 30 138 166 0 63 -1 125 -1 138 l-1 22 -37
-18 c-45 -23 -146 -59 -188 -67 -16 -3 -73 -9 -125 -12 -195 -11 -347 61 -445
210 -55 84 -77 166 -82 297 -8 197 38 337 147 449 96 100 194 141 345 146 126
5 198 -7 303 -50 l82 -33 1 31 c1 51 1 199 0 233 -1 21 -7 34 -18 39 -109 41
-422 56 -558 25z"/>
<path d="M4238 4830 c-243 -41 -428 -178 -537 -397 -116 -230 -125 -555 -23
-788 97 -222 278 -369 518 -420 88 -19 295 -14 379 9 281 77 473 296 536 611
13 68 17 264 6 340 -44 316 -243 554 -527 631 -72 19 -273 27 -352 14z m252
-264 c49 -12 126 -56 168 -98 155 -153 197 -538 85 -763 -73 -146 -186 -221
-348 -232 -221 -15 -384 117 -445 362 -57 228 -1 491 133 625 60 60 110 89
187 107 52 12 167 11 220 -1z"/>
<path d="M5380 4748 c-1 -499 1 -961 5 -993 11 -86 16 -110 39 -179 60 -176
160 -277 330 -333 73 -24 96 -26 236 -27 118 0 171 4 220 17 167 45 284 138
350 280 70 151 73 176 75 770 l2 527 -153 0 -153 0 0 -507 c0 -280 -3 -526 -6
-548 -20 -124 -75 -209 -163 -252 -51 -25 -68 -28 -152 -28 -135 1 -209 38
-267 135 -54 90 -57 115 -59 670 -1 283 -2 518 -3 523 -1 4 -68 7 -151 7
l-150 0 0 -62z"/>
<path d="M6988 4793 c-2 -10 -3 -362 -3 -783 l1 -765 145 -3 145 -3 -1 591 c0
509 1 586 13 562 8 -15 82 -132 166 -260 83 -128 205 -316 271 -417 66 -102
163 -250 215 -330 l94 -145 158 0 c119 0 158 3 159 13 1 18 1 1508 0 1535 -1
22 -3 22 -145 22 l-143 0 1 -579 c1 -464 -1 -573 -11 -552 -7 14 -57 94 -110
177 -54 83 -215 331 -358 552 l-259 402 -167 0 c-151 0 -167 -2 -171 -17z"/>
<path d="M8579 4806 c-6 -6 -3 -235 3 -241 3 -3 103 -5 222 -5 l216 0 1 -23
c0 -12 1 -309 1 -659 l1 -638 154 0 153 0 0 660 0 661 133 -1 c72 -1 173 -1
222 -1 l91 1 0 125 0 125 -597 0 c-327 0 -598 -2 -600 -4z"/>
</g>
</svg>
